{
	"asset":{
		"generator":"Khronos glTF Blender I/O v4.5.48",
		"version":"2.0"
	},
	"scene":0,
	"scenes":[
		{
			"name":"Scene",
			"nodes":[
				0
			]
		}
	],
	"nodes":[
		{
			"mesh":0,
			"name":"Cube",
			"scale":[
				1.745961308479309,
				1.745961308479309,
				1.745961308479309
			]
		}
	],
	"materials":[
		{
			"alphaMode":"BLEND",
			"doubleSided":true,
			"name":"Material.001",
			"pbrMetallicRoughness":{
				"baseColorTexture":{
					"index":0
				},
				"metallicFactor":0
			}
		}
	],
	"meshes":[
		{
			"name":"Cube.001",
			"primitives":[
				{
					"attributes":{
						"POSITION":0,
						"NORMAL":1,
						"TEXCOORD_0":2
					},
					"indices":3,
					"material":0
				}
			]
		}
	],
	"textures":[
		{
			"sampler":0,
			"source":0
		}
	],
	"images":[
		{
			"mimeType":"image/png",
			"name":"cave_texture.png",
			"uri":"../Music/cave_texture.png"
		}
	],
	"accessors":[
		{
			"bufferView":0,
			"componentType":5126,
			"count":5917,
			"max":[
				4.751735687255859,
				2.261953353881836,
				9.770081520080566
			],
			"min":[
				-5.5289435386657715,
				-3.2616569995880127,
				0.9891657829284668
			],
			"type":"VEC3"
		},
		{
			"bufferView":1,
			"componentType":5126,
			"count":5917,
			"type":"VEC3"
		},
		{
			"bufferView":2,
			"componentType":5126,
			"count":5917,
			"type":"VEC2"
		},
		{
			"bufferView":3,
			"componentType":5123,
			"count":20343,
			"type":"SCALAR"
		}
	],
	"bufferViews":[
		{
			"buffer":0,
			"byteLength":71004,
			"byteOffset":0,
			"target":34962
		},
		{
			"buffer":0,
			"byteLength":71004,
			"byteOffset":71004,
			"target":34962
		},
		{
			"buffer":0,
			"byteLength":47336,
			"byteOffset":142008,
			"target":34962
		},
		{
			"buffer":0,
			"byteLength":40686,
			"byteOffset":189344,
			"target":34963
		}
	],
	"samplers":[
		{
			"magFilter":9729,
			"minFilter":9987
		}
	],
	"buffers":[
		{
			"byteLength":230032,
			"uri":"defaultcave.bin"
		}
	]
}
